<?xml version="1.0" encoding="UTF-8"?>
<svg xmlns="http://www.w3.org/2000/svg" viewBox="0 0 1200 630" width="1200" height="630">
  <defs>
    <linearGradient id="g66511" x1="95.67727288213004%" y1="29.66316784620998%" x2="4.32272711786996%" y2="70.33683215379003%">
      <stop offset="0%" stop-color="#1E40AF"/>
      <stop offset="100%" stop-color="#1E3A8A"/>
    </linearGradient>
  </defs>
  <rect width="1200" height="630" fill="url(#g66511)"/>
  <polygon points="330.3695397172123,257.9231467843056 400.3695397172123,217.92314678430557 470.3695397172123,257.9231467843056 400.3695397172123,297.9231467843056" fill="rgba(255,255,255,0.08)" stroke="rgba(255,255,255,0.15)" stroke-width="2"/><line x1="460.3695397172123" y1="262.9231467843056" x2="460.3695397172123" y2="317.9231467843056" stroke="rgba(255,255,255,0.12)" stroke-width="2"/><path d="M 948.2863606419414 379.49343571439385 C 918.2863606419414 369.49343571439385 868.2863606419414 374.49343571439385 858.2863606419414 309.49343571439385 L 948.2863606419414 319.49343571439385 L 1038.2863606419414 309.49343571439385 C 1028.2863606419414 374.49343571439385 978.2863606419414 369.49343571439385 948.2863606419414 379.49343571439385 Z" fill="rgba(255,255,255,0.06)" stroke="rgba(255,255,255,0.12)" stroke-width="1.5"/><line x1="948.2863606419414" y1="379.49343571439385" x2="948.2863606419414" y2="319.49343571439385" stroke="rgba(255,255,255,0.12)" stroke-width="1.5"/><rect x="166.57117391005158" y="374.94727823883295" width="8" height="100" rx="1" fill="rgba(255,255,255,0.1)" transform="rotate(43.58112852089107 166.57117391005158 374.94727823883295)"/><circle cx="924.3756508687511" cy="151.01800983771682" r="30" fill="none" stroke="rgba(255,255,255,0.12)" stroke-width="2"/><line x1="914.3756508687511" y1="181.01800983771682" x2="934.3756508687511" y2="181.01800983771682" stroke="rgba(255,255,255,0.1)" stroke-width="2"/><line x1="916.3756508687511" y1="188.01800983771682" x2="932.3756508687511" y2="188.01800983771682" stroke="rgba(255,255,255,0.1)" stroke-width="2"/><circle cx="1007.1033796528354" cy="537.9861905169673" r="5.789456019178033" fill="rgba(255,255,255,0.041993478089571)"/><circle cx="788.585848826915" cy="377.54342078696936" r="2.122723300009966" fill="rgba(255,255,255,0.10672889521345497)"/><circle cx="393.1831081863493" cy="170.8089352864772" r="2.0087307253852487" fill="rgba(255,255,255,0.041543657202273605)"/><circle cx="1053.8751708110794" cy="480.1355473813601" r="5.252548669464886" fill="rgba(255,255,255,0.10141780933365227)"/><circle cx="395.5966167151928" cy="419.6545130969025" r="3.7530230479314923" fill="rgba(255,255,255,0.049951422698795794)"/><circle cx="878.0212655896321" cy="530.6916356412694" r="3.132911002263427" fill="rgba(255,255,255,0.09079077884554863)"/><circle cx="369.14965701289475" cy="444.3122070003301" r="3.0960863241925836" fill="rgba(255,255,255,0.10564943334087729)"/><circle cx="228.8255705498159" cy="338.8775969436392" r="3.501679784618318" fill="rgba(255,255,255,0.0558866323530674)"/><circle cx="267.08264558110386" cy="218.20950513938442" r="2.885762288235128" fill="rgba(255,255,255,0.07188567074015736)"/><circle cx="802.4115385720506" cy="502.2180428681895" r="4.072680805809796" fill="rgba(255,255,255,0.10445024887099863)"/><circle cx="959.8623169818893" cy="380.0092432764359" r="5.556499780155718" fill="rgba(255,255,255,0.052344960160553455)"/><circle cx="578.9567644707859" cy="410.20010514883325" r="5.927303370088339" fill="rgba(255,255,255,0.11967923190444707)"/><circle cx="147.76886405888945" cy="317.2257868084125" r="3.778685080818832" fill="rgba(255,255,255,0.04491061570122838)"/><circle cx="509.639246459119" cy="308.3551707165316" r="5.385472999885678" fill="rgba(255,255,255,0.09749085878953337)"/><circle cx="820.1103992993012" cy="99.08080987166613" r="3.875211212784052" fill="rgba(255,255,255,0.06945367719978095)"/>
  <circle cx="1196.1416688747704" cy="394.88759372150525" r="1.0415400969795883" fill="rgba(255,255,255,0.03125665534287691)"/><circle cx="849.7389326803386" cy="599.9792378861457" r="1.5030609918758273" fill="rgba(255,255,255,0.07433491290546954)"/><circle cx="189.93486603721976" cy="223.33219667198136" r="1.7626711619086564" fill="rgba(255,255,255,0.033943434869870545)"/><circle cx="395.77352860942483" cy="344.16805832181126" r="1.6125274542719126" fill="rgba(255,255,255,0.03375250793294981)"/><circle cx="928.6937875673175" cy="590.4509097989649" r="2.1459282930009067" fill="rgba(255,255,255,0.03752322834450751)"/><circle cx="527.7420063503087" cy="51.81986012030393" r="2.4357008119113743" fill="rgba(255,255,255,0.07261261551873759)"/><circle cx="864.5960393361747" cy="233.5115051222965" r="2.5309318196959794" fill="rgba(255,255,255,0.07473370836349205)"/><circle cx="1195.5106733366847" cy="598.7269655428827" r="1.7625358016230166" fill="rgba(255,255,255,0.03694119179388508)"/><circle cx="215.85748270154" cy="63.057822030968964" r="2.4940060335211456" fill="rgba(255,255,255,0.05161720350850374)"/><circle cx="559.2240734025836" cy="544.6477324934676" r="2.7912466642446816" fill="rgba(255,255,255,0.03607808429049328)"/><circle cx="251.65020357817411" cy="359.13148165214807" r="2.2965882178395987" fill="rgba(255,255,255,0.04907516891369596)"/><circle cx="859.1209525242448" cy="597.7316185436212" r="2.1291646603494883" fill="rgba(255,255,255,0.03309619883773848)"/><circle cx="985.2593081071973" cy="567.5895694317296" r="2.040557647123933" fill="rgba(255,255,255,0.041953343427740035)"/><circle cx="1170.7603136077523" cy="41.145062651485205" r="1.25225990684703" fill="rgba(255,255,255,0.0481042090523988)"/><circle cx="969.0388879738748" cy="279.29871286964044" r="2.6001930441707373" fill="rgba(255,255,255,0.04994411773048341)"/><circle cx="230.29114175587893" cy="128.71548302471638" r="2.94918280094862" fill="rgba(255,255,255,0.06770921170944348)"/><circle cx="813.3591695688665" cy="245.44411252252758" r="1.8677848470397294" fill="rgba(255,255,255,0.07646529116434977)"/><circle cx="453.70882926508784" cy="594.282980938442" r="1.3828259236179292" fill="rgba(255,255,255,0.05819882989861071)"/><circle cx="886.2043828703463" cy="604.058013916947" r="2.7019483693875372" fill="rgba(255,255,255,0.05861486654728651)"/><circle cx="670.5847936682403" cy="327.03164972830564" r="1.6997309997677803" fill="rgba(255,255,255,0.049683876424096524)"/>
  <text x="600" y="335" font-family="system-ui, -apple-system, 'Segoe UI', sans-serif" font-size="68" font-weight="700" fill="rgba(0,0,0,0.15)" text-anchor="middle" letter-spacing="1">TPAT</text>
  <text x="600" y="332" font-family="system-ui, -apple-system, 'Segoe UI', sans-serif" font-size="68" font-weight="700" fill="white" text-anchor="middle" letter-spacing="1">TPAT</text>
  <g transform="translate(1140, 575)">
    <rect x="0" y="0" width="40" height="40" rx="8" fill="rgba(255,255,255,0.15)"/>
    <text x="20" y="29" font-family="sans-serif" font-weight="bold" font-size="24" fill="rgba(255,255,255,0.6)" text-anchor="middle">K</text>
  </g>
</svg>